GenBasR.ufo
<glyph name="dollar" format="1">
  <advance width="961"/>
  <unicode hex="0024"/>
  <outline>
    <contour>
      <point x="522" y="-143" type="curve" name="hr00"/>
      <point x="522" y="-4" type="line"/>
      <point x="746" y="32"/>
      <point x="862" y="217"/>
      <point x="862" y="377" type="curve" smooth="yes"/>
      <point x="862" y="587"/>
      <point x="688" y="665"/>
      <point x="522" y="728" type="curve"/>
      <point x="522" y="1105" type="line"/>
      <point x="578" y="1089"/>
      <point x="635" y="1052"/>
      <point x="688" y="991" type="curve"/>
      <point x="727" y="983" type="line"/>
      <point x="762" y="1014"/>
      <point x="827" y="1106"/>
      <point x="811" y="1124" type="curve"/>
      <point x="759" y="1176"/>
      <point x="645" y="1212"/>
      <point x="522" y="1214" type="curve"/>
      <point x="522" y="1362" type="line"/>
      <point x="496" y="1384" type="line"/>
      <point x="457" y="1374"/>
      <point x="469" y="1378"/>
      <point x="432" y="1356" type="curve"/>
      <point x="432" y="1210" type="line"/>
      <point x="180" y="1182"/>
      <point x="98" y="1024"/>
      <point x="98" y="911" type="curve" smooth="yes"/>
      <point x="98" y="715"/>
      <point x="268" y="654"/>
      <point x="432" y="593" type="curve"/>
      <point x="432" y="114" type="line"/>
      <point x="312" y="130"/>
      <point x="209" y="199"/>
      <point x="145" y="336" type="curve"/>
      <point x="102" y="340" type="line"/>
      <point x="82" y="266"/>
      <point x="84" y="109"/>
      <point x="102" y="96" type="curve"/>
      <point x="220" y="22"/>
      <point x="304" y="-8"/>
      <point x="432" y="-10" type="curve"/>
      <point x="432" y="-152" type="line"/>
      <point x="459" y="-174" type="line"/>
      <point x="492" y="-166"/>
      <point x="498" y="-164"/>
    </contour>
    <contour>
      <point x="727" y="324" type="curve" smooth="yes"/>
      <point x="727" y="209"/>
      <point x="629" y="127"/>
      <point x="522" y="113" type="curve"/>
      <point x="522" y="558" type="line"/>
      <point x="635" y="511"/>
      <point x="727" y="450"/>
    </contour>
    <contour>
      <point x="225" y="958" type="curve" smooth="yes"/>
      <point x="225" y="1031"/>
      <point x="277" y="1109"/>
      <point x="432" y="1115" type="curve"/>
      <point x="432" y="763" type="line"/>
      <point x="317" y="809"/>
      <point x="225" y="858"/>
    </contour>
  </outline>
</glyph>
<glyph name="ampersand" format="1">
  <advance width="1366"/>
  <unicode hex="0026"/>
  <outline>
    <contour>
      <point x="1346" y="748" type="curve" name="hr00"/>
      <point x="1323" y="784" type="line"/>
      <point x="879" y="784" type="line"/>
      <point x="852" y="774"/>
      <point x="819" y="750"/>
      <point x="805" y="733" type="curve"/>
      <point x="827" y="705" type="line"/>
      <point x="905" y="705"/>
      <point x="987" y="614"/>
      <point x="987" y="502" type="curve" smooth="yes"/>
      <point x="987" y="442"/>
      <point x="964" y="371"/>
      <point x="922" y="305" type="curve"/>
      <point x="786" y="445"/>
      <point x="643" y="623"/>
      <point x="549" y="796" type="curve"/>
      <point x="570" y="811"/>
      <point x="593" y="826"/>
      <point x="618" y="842" type="curve" smooth="yes"/>
      <point x="776" y="940"/>
      <point x="868" y="1065"/>
      <point x="868" y="1204" type="curve" smooth="yes"/>
      <point x="868" y="1333"/>
      <point x="811" y="1450"/>
      <point x="641" y="1450" type="curve" smooth="yes"/>
      <point x="473" y="1450"/>
      <point x="317" y="1288"/>
      <point x="317" y="1073" type="curve" smooth="yes"/>
      <point x="317" y="986"/>
      <point x="341" y="893"/>
      <point x="380" y="799" type="curve"/>
      <point x="188" y="663"/>
      <point x="80" y="502"/>
      <point x="80" y="352" type="curve" smooth="yes"/>
      <point x="80" y="102"/>
      <point x="250" y="-30"/>
      <point x="498" y="-30" type="curve" smooth="yes"/>
      <point x="642" y="-30"/>
      <point x="773" y="31"/>
      <point x="877" y="119" type="curve"/>
      <point x="973" y="27"/>
      <point x="1052" y="-30"/>
      <point x="1081" y="-30" type="curve" smooth="yes"/>
      <point x="1110" y="-30"/>
      <point x="1194" y="-6"/>
      <point x="1309" y="45" type="curve"/>
      <point x="1300" y="88" type="line"/>
      <point x="1223" y="70"/>
      <point x="1167" y="84"/>
      <point x="1116" y="127" type="curve"/>
      <point x="1077" y="158"/>
      <point x="1034" y="196"/>
      <point x="989" y="239" type="curve"/>
      <point x="1064" y="338"/>
      <point x="1108" y="449"/>
      <point x="1108" y="543" type="curve" smooth="yes"/>
      <point x="1108" y="621"/>
      <point x="1104" y="653"/>
      <point x="1075" y="700" type="curve"/>
      <point x="1120" y="698"/>
      <point x="1198" y="682"/>
      <point x="1247" y="659" type="curve"/>
      <point x="1280" y="682"/>
      <point x="1313" y="707"/>
    </contour>
    <contour>
      <point x="528" y="84" type="curve" smooth="yes"/>
      <point x="381" y="84"/>
      <point x="242" y="186"/>
      <point x="242" y="373" type="curve" smooth="yes"/>
      <point x="242" y="486"/>
      <point x="288" y="586"/>
      <point x="425" y="703" type="curve"/>
      <point x="525" y="511"/>
      <point x="678" y="321"/>
      <point x="812" y="183" type="curve"/>
      <point x="737" y="124"/>
      <point x="641" y="84"/>
    </contour>
    <contour>
      <point x="444" y="1130" type="curve" smooth="yes"/>
      <point x="444" y="1235"/>
      <point x="492" y="1343"/>
      <point x="588" y="1343" type="curve" smooth="yes"/>
      <point x="682" y="1343"/>
      <point x="729" y="1264"/>
      <point x="729" y="1171" type="curve" smooth="yes"/>
      <point x="729" y="1084"/>
      <point x="689" y="982"/>
      <point x="508" y="879" type="curve"/>
      <point x="468" y="967"/>
      <point x="444" y="1053"/>
    </contour>
  </outline>
</glyph>
<glyph name="six" format="1">
  <advance width="961"/>
  <unicode hex="0036"/>
  <outline>
    <contour>
      <point x="881" y="412" type="curve" name="hr00" smooth="yes"/>
      <point x="881" y="631"/>
      <point x="756" y="770"/>
      <point x="541" y="770" type="curve" smooth="yes"/>
      <point x="479" y="770"/>
      <point x="373" y="741"/>
      <point x="279" y="650" type="curve"/>
      <point x="320" y="888"/>
      <point x="492" y="1117"/>
      <point x="807" y="1190" type="curve"/>
      <point x="788" y="1249" type="line"/>
      <point x="324" y="1182"/>
      <point x="110" y="850"/>
      <point x="110" y="473" type="curve" smooth="yes"/>
      <point x="110" y="172"/>
      <point x="287" y="-30"/>
      <point x="506" y="-30" type="curve" smooth="yes"/>
      <point x="752" y="-30"/>
      <point x="881" y="225"/>
    </contour>
    <contour>
      <point x="500" y="660" type="curve" smooth="yes"/>
      <point x="598" y="660"/>
      <point x="731" y="598"/>
      <point x="731" y="348" type="curve" smooth="yes"/>
      <point x="731" y="225"/>
      <point x="688" y="75"/>
      <point x="545" y="75" type="curve" smooth="yes"/>
      <point x="379" y="75"/>
      <point x="270" y="220"/>
      <point x="270" y="536" type="curve"/>
      <point x="344" y="625"/>
      <point x="432" y="660"/>
    </contour>
    <contour>
      <point x="480" y="-100" type="move" name="L"/>
    </contour>
    <contour>
      <point x="480" y="1370" type="move" name="U"/>
    </contour>
  </outline>
</glyph>
<glyph name="M" format="1">
  <advance width="1651"/>
  <unicode hex="004D"/>
  <outline>
    <contour>
      <point x="1550" y="1217" type="curve" name="hr00"/>
      <point x="1550" y="1260" type="line"/>
      <point x="1264" y="1260" type="line" smooth="yes"/>
      <point x="1239" y="1260"/>
      <point x="1234" y="1256"/>
      <point x="1200" y="1176" type="curve" smooth="yes"/>
      <point x="818" y="274" type="line"/>
      <point x="420" y="1176" type="line" smooth="yes"/>
      <point x="388" y="1248"/>
      <point x="383" y="1260"/>
      <point x="356" y="1260" type="curve" smooth="yes"/>
      <point x="70" y="1260" type="line"/>
      <point x="70" y="1217" type="line"/>
      <point x="110" y="1217"/>
      <point x="165" y="1206"/>
      <point x="215" y="1177" type="curve"/>
      <point x="205" y="104" type="line" smooth="yes"/>
      <point x="205" y="86"/>
      <point x="151" y="61"/>
      <point x="60" y="43" type="curve"/>
      <point x="60" y="0" type="line"/>
      <point x="465" y="0" type="line"/>
      <point x="465" y="43" type="line"/>
      <point x="369" y="61"/>
      <point x="320" y="88"/>
      <point x="320" y="104" type="curve" smooth="yes"/>
      <point x="329" y="1033" type="line"/>
      <point x="774" y="0" type="line"/>
      <point x="823" y="0" type="line"/>
      <point x="1261" y="1040" type="line"/>
      <point x="1270" y="104" type="line" smooth="yes"/>
      <point x="1270" y="86"/>
      <point x="1205" y="61"/>
      <point x="1115" y="43" type="curve"/>
      <point x="1115" y="0" type="line"/>
      <point x="1570" y="0" type="line"/>
      <point x="1570" y="43" type="line"/>
      <point x="1474" y="61"/>
      <point x="1425" y="88"/>
      <point x="1425" y="104" type="curve" smooth="yes"/>
      <point x="1415" y="1181" type="line"/>
      <point x="1462" y="1203"/>
      <point x="1512" y="1217"/>
    </contour>
    <contour>
      <point x="815" y="-100" type="move" name="L"/>
    </contour>
    <contour>
      <point x="815" y="1370" type="move" name="U"/>
    </contour>
  </outline>
</glyph>
<glyph name="N" format="1">
  <advance width="1329"/>
  <unicode hex="004E"/>
  <outline>
    <contour>
      <point x="460" y="0" type="line" name="hr00"/>
      <point x="460" y="43" type="line"/>
      <point x="357" y="57"/>
      <point x="315" y="88"/>
      <point x="315" y="104" type="curve" smooth="yes"/>
      <point x="315" y="993" type="line"/>
      <point x="1016" y="21" type="line" smooth="yes"/>
      <point x="1032" y="-1"/>
      <point x="1069" y="-22"/>
      <point x="1135" y="-30" type="curve"/>
      <point x="1135" y="1155" type="line" smooth="yes"/>
      <point x="1135" y="1174"/>
      <point x="1184" y="1204"/>
      <point x="1280" y="1217" type="curve"/>
      <point x="1280" y="1260" type="line"/>
      <point x="870" y="1260" type="line"/>
      <point x="870" y="1217" type="line"/>
      <point x="977" y="1202"/>
      <point x="1015" y="1171"/>
      <point x="1015" y="1155" type="curve" smooth="yes"/>
      <point x="1015" y="276" type="line"/>
      <point x="358" y="1182" type="line" smooth="yes"/>
      <point x="308" y="1251"/>
      <point x="301" y="1260"/>
      <point x="262" y="1260" type="curve" smooth="yes"/>
      <point x="50" y="1260" type="line"/>
      <point x="50" y="1217" type="line"/>
      <point x="102" y="1209"/>
      <point x="151" y="1190"/>
      <point x="195" y="1149" type="curve"/>
      <point x="195" y="104" type="line" smooth="yes"/>
      <point x="195" y="86"/>
      <point x="148" y="55"/>
      <point x="50" y="43" type="curve"/>
      <point x="50" y="0" type="line"/>
    </contour>
    <contour>
      <point x="1075" y="0" type="move" name="H"/>
    </contour>
    <contour>
      <point x="665" y="-100" type="move" name="L"/>
    </contour>
    <contour>
      <point x="665" y="1370" type="move" name="U"/>
    </contour>
  </outline>
</glyph>
<glyph name="Q" format="1">
  <advance width="1229"/>
  <unicode hex="0051"/>
  <outline>
    <contour>
      <point x="1282" y="-117" type="curve" name="hr00"/>
      <point x="1255" y="-82" type="line"/>
      <point x="1176" y="-141"/>
      <point x="1141" y="-160"/>
      <point x="1108" y="-160" type="curve" smooth="yes"/>
      <point x="1009" y="-160"/>
      <point x="888" y="-52"/>
      <point x="765" y="12" type="curve"/>
      <point x="979" y="109"/>
      <point x="1138" y="364"/>
      <point x="1138" y="647" type="curve" smooth="yes"/>
      <point x="1138" y="973"/>
      <point x="963" y="1290"/>
      <point x="633" y="1290" type="curve" smooth="yes"/>
      <point x="319" y="1290"/>
      <point x="70" y="975"/>
      <point x="70" y="612" type="curve" smooth="yes"/>
      <point x="70" y="260"/>
      <point x="281" y="-30"/>
      <point x="575" y="-30" type="curve" smooth="yes"/>
      <point x="590" y="-30"/>
      <point x="605" y="-29"/>
      <point x="620" y="-27" type="curve"/>
      <point x="780" y="-120"/>
      <point x="936" y="-305"/>
      <point x="1102" y="-305" type="curve" smooth="yes"/>
      <point x="1143" y="-305"/>
      <point x="1219" y="-233"/>
    </contour>
    <contour>
      <point x="983" y="629" type="curve" smooth="yes"/>
      <point x="983" y="276"/>
      <point x="825" y="90"/>
      <point x="604" y="90" type="curve" smooth="yes"/>
      <point x="399" y="90"/>
      <point x="225" y="342"/>
      <point x="225" y="641" type="curve" smooth="yes"/>
      <point x="225" y="967"/>
      <point x="367" y="1175"/>
      <point x="604" y="1175" type="curve" smooth="yes"/>
      <point x="831" y="1175"/>
      <point x="983" y="905"/>
    </contour>
    <contour>
      <point x="604" y="-270" type="move" name="L"/>
    </contour>
    <contour>
      <point x="604" y="1370" type="move" name="U"/>
    </contour>
  </outline>
</glyph>
<glyph name="R" format="1">
  <advance width="1149"/>
  <unicode hex="0052"/>
  <outline>
    <contour>
      <point x="500" y="0" type="line" name="hr00"/>
      <point x="500" y="43" type="line"/>
      <point x="403" y="61"/>
      <point x="355" y="88"/>
      <point x="355" y="104" type="curve" smooth="yes"/>
      <point x="355" y="611" type="line"/>
      <point x="392" y="603"/>
      <point x="427" y="600"/>
      <point x="461" y="600" type="curve" smooth="yes"/>
      <point x="479" y="600"/>
      <point x="497" y="600"/>
      <point x="514" y="602" type="curve"/>
      <point x="817" y="41" type="line"/>
      <point x="835" y="11"/>
      <point x="877" y="-14"/>
      <point x="915" y="-14" type="curve" smooth="yes"/>
      <point x="967" y="-14"/>
      <point x="1051" y="8"/>
      <point x="1139" y="37" type="curve"/>
      <point x="1128" y="80" type="line"/>
      <point x="1038" y="72"/>
      <point x="988" y="81"/>
      <point x="948" y="139" type="curve"/>
      <point x="645" y="625" type="line"/>
      <point x="811" y="675"/>
      <point x="927" y="796"/>
      <point x="927" y="987" type="curve" smooth="yes"/>
      <point x="927" y="1159"/>
      <point x="778" y="1290"/>
      <point x="469" y="1290" type="curve" smooth="yes"/>
      <point x="293" y="1290"/>
      <point x="166" y="1261"/>
      <point x="41" y="1230" type="curve"/>
      <point x="50" y="1168" type="line"/>
      <point x="99" y="1175"/>
      <point x="148" y="1183"/>
      <point x="195" y="1189" type="curve"/>
      <point x="195" y="104" type="line" smooth="yes"/>
      <point x="195" y="86"/>
      <point x="140" y="61"/>
      <point x="50" y="43" type="curve"/>
      <point x="50" y="0" type="line"/>
    </contour>
    <contour>
      <point x="432" y="1206" type="curve" smooth="yes"/>
      <point x="670" y="1206"/>
      <point x="772" y="1102"/>
      <point x="772" y="956" type="curve" smooth="yes"/>
      <point x="772" y="780"/>
      <point x="654" y="684"/>
      <point x="444" y="684" type="curve" smooth="yes"/>
      <point x="415" y="684"/>
      <point x="391" y="685"/>
      <point x="355" y="691" type="curve"/>
      <point x="355" y="1203" type="line"/>
      <point x="381" y="1205"/>
      <point x="407" y="1206"/>
    </contour>
    <contour>
      <point x="275" y="0" type="move" name="H"/>
    </contour>
    <contour>
      <point x="520" y="-100" type="move" name="L"/>
    </contour>
    <contour>
      <point x="520" y="1370" type="move" name="U"/>
    </contour>
  </outline>
</glyph>
<glyph name="underscore" format="1">
  <advance width="961"/>
  <unicode hex="005F"/>
  <outline>
    <contour>
      <point x="897" y="-156" type="curve" name="hr00"/>
      <point x="874" y="-131" type="line"/>
      <point x="92" y="-131" type="line"/>
      <point x="80" y="-158"/>
      <point x="68" y="-193"/>
      <point x="61" y="-219" type="curve"/>
      <point x="86" y="-246" type="line"/>
      <point x="868" y="-246" type="line"/>
      <point x="879" y="-221"/>
      <point x="891" y="-184"/>
    </contour>
  </outline>
</glyph>
<glyph name="a" format="1">
  <advance width="940"/>
  <unicode hex="0061"/>
  <outline>
    <contour>
      <point x="926" y="82" type="curve" name="hr00"/>
      <point x="911" y="127" type="line"/>
      <point x="858" y="105"/>
      <point x="832" y="100"/>
      <point x="813" y="100" type="curve" smooth="yes"/>
      <point x="789" y="100"/>
      <point x="773" y="122"/>
      <point x="773" y="178" type="curve" smooth="yes"/>
      <point x="773" y="742" type="line" smooth="yes"/>
      <point x="773" y="879"/>
      <point x="690" y="960"/>
      <point x="544" y="960" type="curve" smooth="yes"/>
      <point x="375" y="960"/>
      <point x="169" y="839"/>
      <point x="108" y="706" type="curve"/>
      <point x="122" y="667" type="line"/>
      <point x="155" y="659"/>
      <point x="295" y="699"/>
      <point x="292" y="724" type="curve" smooth="yes"/>
      <point x="284" y="804"/>
      <point x="369" y="858"/>
      <point x="455" y="860" type="curve" smooth="yes"/>
      <point x="586" y="864"/>
      <point x="623" y="792"/>
      <point x="623" y="702" type="curve" smooth="yes"/>
      <point x="623" y="561" type="line"/>
      <point x="316" y="516"/>
      <point x="234" y="465"/>
      <point x="170" y="401" type="curve" smooth="yes"/>
      <point x="121" y="352"/>
      <point x="80" y="288"/>
      <point x="80" y="186" type="curve" smooth="yes"/>
      <point x="80" y="31"/>
      <point x="197" y="-30"/>
      <point x="293" y="-30" type="curve" smooth="yes"/>
      <point x="378" y="-30"/>
      <point x="503" y="22"/>
      <point x="623" y="143" type="curve"/>
      <point x="626" y="36"/>
      <point x="658" y="-30"/>
      <point x="702" y="-30" type="curve" smooth="yes"/>
      <point x="739" y="-30"/>
      <point x="813" y="4"/>
    </contour>
    <contour>
      <point x="352" y="100" type="curve" smooth="yes"/>
      <point x="317" y="100"/>
      <point x="244" y="123"/>
      <point x="244" y="229" type="curve" smooth="yes"/>
      <point x="244" y="291"/>
      <point x="268" y="336"/>
      <point x="302" y="372" type="curve" smooth="yes"/>
      <point x="345" y="417"/>
      <point x="400" y="450"/>
      <point x="623" y="486" type="curve"/>
      <point x="623" y="227" type="line"/>
      <point x="522" y="140"/>
      <point x="431" y="100"/>
    </contour>
    <contour>
      <point x="700" y="0" type="move" name="H"/>
    </contour>
    <contour>
      <point x="715" y="0" type="move" name="O"/>
    </contour>
    <contour>
      <point x="940" y="900" type="move" name="R"/>
    </contour>
    <contour>
      <point x="480" y="1050" type="move" name="U"/>
    </contour>
    <contour>
      <point x="460" y="-100" type="move" name="L"/>
    </contour>
  </outline>
</glyph>
<glyph name="d" format="1">
  <advance width="1065"/>
  <unicode hex="0064"/>
  <outline>
    <contour>
      <point x="1051" y="84" type="curve" name="hr00"/>
      <point x="1038" y="127" type="line"/>
      <point x="958" y="96"/>
      <point x="930" y="92"/>
      <point x="918" y="106" type="curve" smooth="yes"/>
      <point x="903" y="125"/>
      <point x="895" y="160"/>
      <point x="895" y="254" type="curve" smooth="yes"/>
      <point x="895" y="1520" type="line"/>
      <point x="864" y="1550" type="line"/>
      <point x="795" y="1528"/>
      <point x="709" y="1499"/>
      <point x="600" y="1485" type="curve"/>
      <point x="600" y="1446" type="line"/>
      <point x="741" y="1436"/>
      <point x="745" y="1421"/>
      <point x="745" y="1274" type="curve" smooth="yes"/>
      <point x="745" y="897" type="line"/>
      <point x="673" y="950"/>
      <point x="613" y="960"/>
      <point x="551" y="960" type="curve" smooth="yes"/>
      <point x="272" y="960"/>
      <point x="80" y="674"/>
      <point x="80" y="444" type="curve" smooth="yes"/>
      <point x="80" y="147"/>
      <point x="268" y="-30"/>
      <point x="416" y="-30" type="curve" smooth="yes"/>
      <point x="553" y="-30"/>
      <point x="645" y="46"/>
      <point x="747" y="169" type="curve"/>
      <point x="756" y="24"/>
      <point x="785" y="-30"/>
      <point x="829" y="-30" type="curve" smooth="yes"/>
      <point x="866" y="-30"/>
      <point x="928" y="2"/>
    </contour>
    <contour>
      <point x="745" y="261" type="line"/>
      <point x="662" y="180"/>
      <point x="578" y="100"/>
      <point x="487" y="100" type="curve" smooth="yes"/>
      <point x="377" y="100"/>
      <point x="230" y="248"/>
      <point x="230" y="475" type="curve" smooth="yes"/>
      <point x="230" y="725"/>
      <point x="350" y="850"/>
      <point x="520" y="850" type="curve" smooth="yes"/>
      <point x="615" y="850"/>
      <point x="701" y="806"/>
      <point x="745" y="730" type="curve"/>
      <point x="745" y="272" type="line"/>
    </contour>
    <contour>
      <point x="820" y="0" type="move" name="H"/>
    </contour>
    <contour>
      <point x="1065" y="900" type="move" name="R"/>
    </contour>
    <contour>
      <point x="335" y="1050" type="move" name="U"/>
    </contour>
    <contour>
      <point x="525" y="-100" type="move" name="L"/>
    </contour>
  </outline>
</glyph>
<glyph name="g" format="1">
  <advance width="999"/>
  <unicode hex="0067"/>
  <outline>
    <contour>
      <point x="830" y="641" type="curve" name="hr00" smooth="yes"/>
      <point x="830" y="704"/>
      <point x="810" y="763"/>
      <point x="775" y="813" type="curve"/>
      <point x="836" y="815"/>
      <point x="882" y="821"/>
      <point x="932" y="830" type="curve"/>
      <point x="963" y="863"/>
      <point x="973" y="893"/>
      <point x="989" y="930" type="curve"/>
      <point x="969" y="960" type="line"/>
      <point x="914" y="939"/>
      <point x="833" y="909"/>
      <point x="693" y="895" type="curve"/>
      <point x="636" y="936"/>
      <point x="564" y="960"/>
      <point x="485" y="960" type="curve" smooth="yes"/>
      <point x="291" y="960"/>
      <point x="100" y="798"/>
      <point x="100" y="602" type="curve" smooth="yes"/>
      <point x="100" y="453"/>
      <point x="191" y="346"/>
      <point x="326" y="309" type="curve"/>
      <point x="203" y="224"/>
      <point x="182" y="175"/>
      <point x="182" y="153" type="curve" smooth="yes"/>
      <point x="182" y="113"/>
      <point x="211" y="73"/>
      <point x="297" y="42" type="curve"/>
      <point x="69" y="-80"/>
      <point x="30" y="-159"/>
      <point x="30" y="-229" type="curve" smooth="yes"/>
      <point x="30" y="-423"/>
      <point x="281" y="-500"/>
      <point x="467" y="-500" type="curve" smooth="yes"/>
      <point x="702" y="-500"/>
      <point x="970" y="-339"/>
      <point x="970" y="-120" type="curve" smooth="yes"/>
      <point x="970" y="-26"/>
      <point x="893" y="78"/>
      <point x="602" y="110" type="curve"/>
      <point x="393" y="135"/>
      <point x="346" y="164"/>
      <point x="346" y="196" type="curve" smooth="yes"/>
      <point x="346" y="204"/>
      <point x="367" y="242"/>
      <point x="430" y="295" type="curve"/>
      <point x="434" y="295" type="line" smooth="yes"/>
      <point x="629" y="295"/>
      <point x="830" y="437"/>
    </contour>
    <contour>
      <point x="518" y="-4" type="curve" smooth="yes"/>
      <point x="760" y="-31"/>
      <point x="820" y="-83"/>
      <point x="820" y="-157" type="curve" smooth="yes"/>
      <point x="820" y="-295"/>
      <point x="702" y="-395"/>
      <point x="522" y="-395" type="curve" smooth="yes"/>
      <point x="340" y="-395"/>
      <point x="180" y="-302"/>
      <point x="180" y="-190" type="curve" smooth="yes"/>
      <point x="180" y="-147"/>
      <point x="197" y="-87"/>
      <point x="388" y="16" type="curve"/>
      <point x="425" y="8"/>
      <point x="468" y="1"/>
    </contour>
    <contour>
      <point x="690" y="600" type="curve" smooth="yes"/>
      <point x="690" y="468"/>
      <point x="592" y="400"/>
      <point x="514" y="400" type="curve" smooth="yes"/>
      <point x="326" y="400"/>
      <point x="240" y="517"/>
      <point x="240" y="659" type="curve" smooth="yes"/>
      <point x="240" y="791"/>
      <point x="350" y="860"/>
      <point x="416" y="860" type="curve" smooth="yes"/>
      <point x="596" y="860"/>
      <point x="690" y="742"/>
    </contour>
    <contour>
      <point x="500" y="-470" type="move" name="H"/>
    </contour>
    <contour>
      <point x="999" y="900" type="move" name="R"/>
    </contour>
    <contour>
      <point x="500" y="1050" type="move" name="U"/>
    </contour>
    <contour>
      <point x="500" y="-600" type="move" name="L"/>
    </contour>
  </outline>
</glyph>
<glyph name="k" format="1">
  <advance width="1024"/>
  <unicode hex="006B"/>
  <outline>
    <contour>
      <point x="455" y="0" type="line" name="hr00"/>
      <point x="455" y="43" type="line"/>
      <point x="356" y="74"/>
      <point x="345" y="84"/>
      <point x="345" y="104" type="curve" smooth="yes"/>
      <point x="345" y="522" type="line"/>
      <point x="725" y="43" type="line"/>
      <point x="754" y="4"/>
      <point x="784" y="-10"/>
      <point x="840" y="-10" type="curve" smooth="yes"/>
      <point x="868" y="-10"/>
      <point x="946" y="0"/>
      <point x="1024" y="18" type="curve"/>
      <point x="1018" y="61" type="line"/>
      <point x="940" y="55"/>
      <point x="901" y="68"/>
      <point x="864" y="111" type="curve" smooth="yes"/>
      <point x="488" y="552" type="line"/>
      <point x="829" y="825" type="line" smooth="yes"/>
      <point x="885" y="870"/>
      <point x="930" y="881"/>
      <point x="989" y="887" type="curve"/>
      <point x="989" y="930" type="line"/>
      <point x="610" y="930" type="line"/>
      <point x="610" y="887" type="line"/>
      <point x="680" y="887"/>
      <point x="741" y="877"/>
      <point x="653" y="799" type="curve" smooth="yes"/>
      <point x="345" y="530" type="line"/>
      <point x="345" y="1516" type="line"/>
      <point x="308" y="1550" type="line"/>
      <point x="241" y="1511"/>
      <point x="147" y="1489"/>
      <point x="55" y="1470" type="curve"/>
      <point x="55" y="1430" type="line"/>
      <point x="170" y="1417"/>
      <point x="195" y="1419"/>
      <point x="195" y="1296" type="curve" smooth="yes"/>
      <point x="195" y="104" type="line" smooth="yes"/>
      <point x="195" y="80"/>
      <point x="143" y="66"/>
      <point x="55" y="43" type="curve"/>
      <point x="55" y="0" type="line"/>
    </contour>
    <contour>
      <point x="275" y="0" type="move" name="H"/>
    </contour>
    <contour>
      <point x="1024" y="900" type="move" name="R"/>
    </contour>
    <contour>
      <point x="539" y="1620" type="move" name="U"/>
    </contour>
    <contour>
      <point x="539" y="-100" type="move" name="L"/>
    </contour>
  </outline>
</glyph>
<glyph name="currency" format="1">
  <advance width="961"/>
  <unicode hex="00A4"/>
  <outline>
    <contour>
      <point x="804" y="310" type="line" name="hr00"/>
      <point x="803" y="344" type="line"/>
      <point x="697" y="449" type="line"/>
      <point x="729" y="494"/>
      <point x="745" y="547"/>
      <point x="745" y="600" type="curve" smooth="yes"/>
      <point x="745" y="653"/>
      <point x="728" y="707"/>
      <point x="696" y="752" type="curve"/>
      <point x="802" y="858" type="line"/>
      <point x="772" y="924" type="line"/>
      <point x="738" y="923" type="line"/>
      <point x="632" y="817" type="line"/>
      <point x="587" y="850"/>
      <point x="535" y="866"/>
      <point x="482" y="866" type="curve" smooth="yes"/>
      <point x="429" y="866"/>
      <point x="375" y="849"/>
      <point x="330" y="817" type="curve"/>
      <point x="223" y="924" type="line"/>
      <point x="202" y="915"/>
      <point x="179" y="903"/>
      <point x="161" y="893" type="curve"/>
      <point x="159" y="860" type="line"/>
      <point x="266" y="752" type="line"/>
      <point x="234" y="707"/>
      <point x="218" y="653"/>
      <point x="218" y="600" type="curve" smooth="yes"/>
      <point x="218" y="547"/>
      <point x="233" y="494"/>
      <point x="265" y="450" type="curve"/>
      <point x="158" y="343" type="line"/>
      <point x="167" y="322"/>
      <point x="179" y="299"/>
      <point x="189" y="281" type="curve"/>
      <point x="222" y="279" type="line"/>
      <point x="330" y="386" type="line"/>
      <point x="375" y="354"/>
      <point x="429" y="339"/>
      <point x="482" y="339" type="curve" smooth="yes"/>
      <point x="535" y="339"/>
      <point x="588" y="354"/>
      <point x="633" y="385" type="curve"/>
      <point x="738" y="280" type="line"/>
    </contour>
    <contour>
      <point x="363" y="721" type="curve" smooth="yes"/>
      <point x="396" y="754"/>
      <point x="439" y="770"/>
      <point x="482" y="770" type="curve" smooth="yes"/>
      <point x="525" y="770"/>
      <point x="567" y="754"/>
      <point x="600" y="721" type="curve" smooth="yes"/>
      <point x="633" y="688"/>
      <point x="650" y="645"/>
      <point x="650" y="602" type="curve" smooth="yes"/>
      <point x="650" y="559"/>
      <point x="633" y="516"/>
      <point x="601" y="483" type="curve" smooth="yes"/>
      <point x="568" y="450"/>
      <point x="525" y="434"/>
      <point x="482" y="434" type="curve" smooth="yes"/>
      <point x="439" y="434"/>
      <point x="396" y="450"/>
      <point x="362" y="484" type="curve" smooth="yes"/>
      <point x="329" y="516"/>
      <point x="313" y="558"/>
      <point x="313" y="601" type="curve" smooth="yes"/>
      <point x="313" y="644"/>
      <point x="330" y="688"/>
    </contour>
  </outline>
</glyph>
<glyph name="registered" format="1">
  <advance width="730"/>
  <unicode hex="00AE"/>
  <outline>
    <contour>
      <point x="696" y="1084" type="curve" name="hr00" smooth="yes"/>
      <point x="696" y="1275"/>
      <point x="556" y="1430"/>
      <point x="364" y="1430" type="curve" smooth="yes"/>
      <point x="173" y="1430"/>
      <point x="35" y="1275"/>
      <point x="35" y="1084" type="curve" smooth="yes"/>
      <point x="35" y="893"/>
      <point x="173" y="738"/>
      <point x="364" y="738" type="curve" smooth="yes"/>
      <point x="556" y="738"/>
      <point x="696" y="893"/>
    </contour>
    <contour>
      <point x="637" y="1084" type="curve" smooth="yes"/>
      <point x="637" y="925"/>
      <point x="523" y="797"/>
      <point x="364" y="797" type="curve" smooth="yes"/>
      <point x="207" y="797"/>
      <point x="93" y="925"/>
      <point x="93" y="1084" type="curve" smooth="yes"/>
      <point x="93" y="1242"/>
      <point x="207" y="1371"/>
      <point x="364" y="1371" type="curve" smooth="yes"/>
      <point x="523" y="1371"/>
      <point x="637" y="1242"/>
    </contour>
    <contour>
      <point x="356" y="887" type="line"/>
      <point x="356" y="905" type="line"/>
      <point x="326" y="911"/>
      <point x="313" y="919"/>
      <point x="313" y="924" type="curve" smooth="yes"/>
      <point x="313" y="1073" type="line"/>
      <point x="324" y="1071"/>
      <point x="334" y="1070"/>
      <point x="344" y="1070" type="curve" smooth="yes"/>
      <point x="346" y="1070" type="line"/>
      <point x="451" y="899" type="line" smooth="yes"/>
      <point x="456" y="891"/>
      <point x="470" y="881"/>
      <point x="482" y="881" type="curve" smooth="yes"/>
      <point x="497" y="881"/>
      <point x="529" y="890"/>
      <point x="556" y="898" type="curve"/>
      <point x="554" y="919" type="line"/>
      <point x="525" y="917"/>
      <point x="511" y="920"/>
      <point x="502" y="934" type="curve"/>
      <point x="399" y="1077" type="line"/>
      <point x="457" y="1092"/>
      <point x="499" y="1134"/>
      <point x="499" y="1196" type="curve" smooth="yes"/>
      <point x="499" y="1250"/>
      <point x="447" y="1291"/>
      <point x="347" y="1291" type="curve" smooth="yes"/>
      <point x="292" y="1291"/>
      <point x="251" y="1282"/>
      <point x="212" y="1273" type="curve"/>
      <point x="214" y="1244" type="line"/>
      <point x="258" y="1250" type="line"/>
      <point x="258" y="924" type="line" smooth="yes"/>
      <point x="258" y="918"/>
      <point x="242" y="911"/>
      <point x="214" y="905" type="curve"/>
      <point x="214" y="887" type="line"/>
    </contour>
    <contour>
      <point x="336" y="1256" type="curve" smooth="yes"/>
      <point x="412" y="1256"/>
      <point x="438" y="1226"/>
      <point x="438" y="1187" type="curve" smooth="yes"/>
      <point x="438" y="1136"/>
      <point x="407" y="1107"/>
      <point x="340" y="1107" type="curve" smooth="yes"/>
      <point x="330" y="1107"/>
      <point x="323" y="1107"/>
      <point x="313" y="1109" type="curve"/>
      <point x="313" y="1255" type="line"/>
      <point x="321" y="1256"/>
      <point x="328" y="1256"/>
    </contour>
  </outline>
</glyph>
<glyph name="threequarters" format="1">
  <advance width="1200"/>
  <unicode hex="00BE"/>
  <outline>
    <contour>
      <point x="520" y="825" type="curve" name="hr00"/>
      <point x="520" y="903"/>
      <point x="455" y="968"/>
      <point x="369" y="977" type="curve"/>
      <point x="442" y="1000"/>
      <point x="487" y="1054"/>
      <point x="487" y="1102" type="curve" smooth="yes"/>
      <point x="487" y="1167"/>
      <point x="436" y="1235"/>
      <point x="320" y="1235" type="curve" smooth="yes"/>
      <point x="204" y="1235"/>
      <point x="100" y="1159"/>
      <point x="100" y="1105" type="curve"/>
      <point x="116" y="1090" type="line"/>
      <point x="148" y="1092"/>
      <point x="184" y="1098"/>
      <point x="209" y="1109" type="curve"/>
      <point x="200" y="1152"/>
      <point x="232" y="1182"/>
      <point x="288" y="1182" type="curve" smooth="yes"/>
      <point x="356" y="1182"/>
      <point x="383" y="1137"/>
      <point x="383" y="1093" type="curve" smooth="yes"/>
      <point x="383" y="1054"/>
      <point x="367" y="1003"/>
      <point x="234" y="971" type="curve"/>
      <point x="241" y="934" type="line"/>
      <point x="264" y="937"/>
      <point x="259" y="937"/>
      <point x="280" y="937" type="curve" smooth="yes"/>
      <point x="342" y="937"/>
      <point x="415" y="905"/>
      <point x="415" y="809" type="curve" smooth="yes"/>
      <point x="415" y="728"/>
      <point x="357" y="684"/>
      <point x="270" y="684" type="curve" smooth="yes"/>
      <point x="214" y="684"/>
      <point x="167" y="696"/>
      <point x="99" y="740" type="curve"/>
      <point x="80" y="707" type="line"/>
      <point x="148" y="652"/>
      <point x="219" y="628"/>
      <point x="285" y="628" type="curve" smooth="yes"/>
      <point x="431" y="628"/>
      <point x="520" y="717"/>
    </contour>
    <contour>
      <point x="1074" y="1207" type="line"/>
      <point x="1049" y="1235" type="line"/>
      <point x="1020" y="1229"/>
      <point x="986" y="1214"/>
      <point x="960" y="1203" type="curve"/>
      <point x="198" y="0" type="line"/>
      <point x="223" y="-30" type="line"/>
      <point x="259" y="-21"/>
      <point x="285" y="-12"/>
      <point x="316" y="3" type="curve"/>
    </contour>
    <contour>
      <point x="1120" y="210" type="curve"/>
      <point x="1105" y="226" type="line"/>
      <point x="1044" y="226" type="line"/>
      <point x="1044" y="581" type="line"/>
      <point x="1024" y="598" type="line"/>
      <point x="1001" y="588"/>
      <point x="964" y="575"/>
      <point x="933" y="563" type="curve"/>
      <point x="653" y="180" type="line"/>
      <point x="672" y="164" type="line"/>
      <point x="950" y="164" type="line"/>
      <point x="950" y="63" type="line" smooth="yes"/>
      <point x="950" y="52"/>
      <point x="937" y="42"/>
      <point x="840" y="29" type="curve"/>
      <point x="840" y="0" type="line"/>
      <point x="1114" y="0" type="line"/>
      <point x="1114" y="29" type="line"/>
      <point x="1052" y="41"/>
      <point x="1044" y="48"/>
      <point x="1044" y="58" type="curve" smooth="yes"/>
      <point x="1044" y="164" type="line"/>
      <point x="1075" y="164" type="line"/>
      <point x="1092" y="175"/>
      <point x="1104" y="190"/>
    </contour>
    <contour>
      <point x="950" y="226" type="line"/>
      <point x="749" y="226" type="line"/>
      <point x="950" y="491" type="line"/>
    </contour>
  </outline>
</glyph>
<glyph name="ae" format="1">
  <advance width="1417"/>
  <unicode hex="00E6"/>
  <outline>
    <contour>
      <point x="1337" y="557" type="curve" name="hr00"/>
      <point x="1337" y="737"/>
      <point x="1268" y="960"/>
      <point x="1024" y="960" type="curve" smooth="yes"/>
      <point x="946" y="960"/>
      <point x="835" y="924"/>
      <point x="749" y="816" type="curve"/>
      <point x="718" y="912"/>
      <point x="652" y="960"/>
      <point x="535" y="960" type="curve" smooth="yes"/>
      <point x="397" y="960"/>
      <point x="128" y="815"/>
      <point x="108" y="657" type="curve"/>
      <point x="122" y="621" type="line"/>
      <point x="155" y="612"/>
      <point x="300" y="651"/>
      <point x="292" y="676" type="curve"/>
      <point x="253" y="776"/>
      <point x="383" y="860"/>
      <point x="467" y="860" type="curve" smooth="yes"/>
      <point x="598" y="860"/>
      <point x="623" y="766"/>
      <point x="623" y="662" type="curve" smooth="yes"/>
      <point x="623" y="576" type="line"/>
      <point x="565" y="572"/>
      <point x="507" y="565"/>
      <point x="463" y="553" type="curve" smooth="yes"/>
      <point x="203" y="479"/>
      <point x="80" y="344"/>
      <point x="80" y="186" type="curve" smooth="yes"/>
      <point x="80" y="31"/>
      <point x="197" y="-30"/>
      <point x="293" y="-30" type="curve" smooth="yes"/>
      <point x="377" y="-30"/>
      <point x="543" y="41"/>
      <point x="658" y="179" type="curve"/>
      <point x="713" y="47"/>
      <point x="826" y="-30"/>
      <point x="944" y="-30" type="curve" smooth="yes"/>
      <point x="1069" y="-30"/>
      <point x="1169" y="4"/>
      <point x="1329" y="195" type="curve"/>
      <point x="1323" y="205"/>
      <point x="1309" y="227"/>
      <point x="1292" y="236" type="curve"/>
      <point x="1151" y="113"/>
      <point x="1092" y="102"/>
      <point x="1008" y="102" type="curve" smooth="yes"/>
      <point x="860" y="102"/>
      <point x="774" y="264"/>
      <point x="774" y="418" type="curve" smooth="yes"/>
      <point x="774" y="443"/>
      <point x="774" y="466"/>
      <point x="776" y="489" type="curve"/>
      <point x="1225" y="489" type="line"/>
      <point x="1268" y="506"/>
      <point x="1311" y="530"/>
    </contour>
    <contour>
      <point x="637" y="243" type="curve"/>
      <point x="539" y="147"/>
      <point x="424" y="100"/>
      <point x="352" y="100" type="curve" smooth="yes"/>
      <point x="317" y="100"/>
      <point x="244" y="123"/>
      <point x="244" y="229" type="curve" smooth="yes"/>
      <point x="244" y="338"/>
      <point x="326" y="424"/>
      <point x="526" y="473" type="curve"/>
      <point x="542" y="478"/>
      <point x="579" y="482"/>
      <point x="623" y="485" type="curve"/>
      <point x="623" y="365" type="line" smooth="yes"/>
      <point x="623" y="321"/>
      <point x="628" y="281"/>
    </contour>
    <contour>
      <point x="995" y="860" type="curve" smooth="yes"/>
      <point x="1120" y="860"/>
      <point x="1171" y="743"/>
      <point x="1171" y="616" type="curve" smooth="yes"/>
      <point x="1171" y="588"/>
      <point x="1161" y="580"/>
      <point x="1133" y="580" type="curve" smooth="yes"/>
      <point x="785" y="580" type="line"/>
      <point x="821" y="813"/>
      <point x="935" y="860"/>
    </contour>
    <contour>
      <point x="738" y="0" type="move" name="H"/>
    </contour>
    <contour>
      <point x="1020" y="0" type="move" name="O"/>
    </contour>
    <contour>
      <point x="1417" y="900" type="move" name="R"/>
    </contour>
    <contour>
      <point x="738" y="1050" type="move" name="U"/>
    </contour>
    <contour>
      <point x="738" y="-100" type="move" name="L"/>
    </contour>
  </outline>
</glyph>
<glyph name="oslash" format="1">
  <advance width="1030"/>
  <unicode hex="00F8"/>
  <outline>
    <contour>
      <point x="915" y="983" type="line" name="hr00"/>
      <point x="877" y="973"/>
      <point x="829" y="936"/>
      <point x="793" y="913" type="curve"/>
      <point x="772" y="885" type="line"/>
      <point x="707" y="933"/>
      <point x="627" y="960"/>
      <point x="535" y="960" type="curve" smooth="yes"/>
      <point x="285" y="960"/>
      <point x="80" y="709"/>
      <point x="80" y="444" type="curve" smooth="yes"/>
      <point x="80" y="311"/>
      <point x="119" y="196"/>
      <point x="188" y="112" type="curve"/>
      <point x="88" y="-20" type="line"/>
      <point x="117" y="-53" type="line"/>
      <point x="150" y="-43"/>
      <point x="217" y="-2"/>
      <point x="242" y="18" type="curve"/>
      <point x="261" y="43" type="line"/>
      <point x="325" y="-3"/>
      <point x="405" y="-30"/>
      <point x="496" y="-30" type="curve" smooth="yes"/>
      <point x="739" y="-30"/>
      <point x="950" y="219"/>
      <point x="950" y="485" type="curve" smooth="yes"/>
      <point x="950" y="616"/>
      <point x="912" y="731"/>
      <point x="844" y="815" type="curve"/>
      <point x="946" y="950" type="line"/>
    </contour>
    <contour>
      <point x="233" y="473" type="curve" smooth="yes"/>
      <point x="233" y="686"/>
      <point x="303" y="850"/>
      <point x="506" y="850" type="curve" smooth="yes"/>
      <point x="564" y="850"/>
      <point x="626" y="816"/>
      <point x="678" y="761" type="curve"/>
      <point x="294" y="253" type="line"/>
      <point x="257" y="316"/>
      <point x="233" y="392"/>
    </contour>
    <contour>
      <point x="797" y="455" type="curve" smooth="yes"/>
      <point x="797" y="227"/>
      <point x="713" y="80"/>
      <point x="524" y="80" type="curve" smooth="yes"/>
      <point x="471" y="80"/>
      <point x="409" y="114"/>
      <point x="356" y="169" type="curve"/>
      <point x="739" y="676" type="line"/>
      <point x="774" y="612"/>
      <point x="797" y="535"/>
    </contour>
    <contour>
      <point x="535" y="0" type="move" name="H"/>
    </contour>
    <contour>
      <point x="575" y="0" type="move" name="O"/>
    </contour>
    <contour>
      <point x="1030" y="900" type="move" name="R"/>
    </contour>
    <contour>
      <point x="525" y="1050" type="move" name="U"/>
    </contour>
    <contour>
      <point x="525" y="-100" type="move" name="L"/>
    </contour>
  </outline>
</glyph>
<glyph name="dcroat" format="1">
  <advance width="1065"/>
  <unicode hex="0111"/>
  <outline>
    <contour>
      <point x="1051" y="84" type="curve" name="hr00"/>
      <point x="1038" y="127" type="line"/>
      <point x="958" y="96"/>
      <point x="930" y="92"/>
      <point x="918" y="106" type="curve" smooth="yes"/>
      <point x="903" y="125"/>
      <point x="895" y="160"/>
      <point x="895" y="254" type="curve" smooth="yes"/>
      <point x="895" y="1140" type="line"/>
      <point x="1040" y="1140" type="line"/>
      <point x="1063" y="1205" type="line"/>
      <point x="1040" y="1230" type="line"/>
      <point x="895" y="1230" type="line"/>
      <point x="895" y="1520" type="line"/>
      <point x="864" y="1550" type="line"/>
      <point x="795" y="1528"/>
      <point x="709" y="1499"/>
      <point x="600" y="1485" type="curve"/>
      <point x="600" y="1446" type="line"/>
      <point x="741" y="1436"/>
      <point x="745" y="1421"/>
      <point x="745" y="1274" type="curve" smooth="yes"/>
      <point x="745" y="1230" type="line"/>
      <point x="465" y="1230" type="line"/>
      <point x="455" y="1209"/>
      <point x="449" y="1183"/>
      <point x="442" y="1162" type="curve"/>
      <point x="465" y="1140" type="line"/>
      <point x="745" y="1140" type="line"/>
      <point x="745" y="897" type="line"/>
      <point x="673" y="950"/>
      <point x="613" y="960"/>
      <point x="551" y="960" type="curve" smooth="yes"/>
      <point x="272" y="960"/>
      <point x="80" y="674"/>
      <point x="80" y="444" type="curve" smooth="yes"/>
      <point x="80" y="147"/>
      <point x="268" y="-30"/>
      <point x="416" y="-30" type="curve" smooth="yes"/>
      <point x="553" y="-30"/>
      <point x="645" y="46"/>
      <point x="747" y="169" type="curve"/>
      <point x="756" y="24"/>
      <point x="785" y="-31"/>
      <point x="829" y="-31" type="curve" smooth="yes"/>
      <point x="866" y="-31"/>
      <point x="928" y="2"/>
    </contour>
    <contour>
      <point x="745" y="261" type="line"/>
      <point x="662" y="180"/>
      <point x="578" y="100"/>
      <point x="487" y="100" type="curve" smooth="yes"/>
      <point x="377" y="100"/>
      <point x="230" y="248"/>
      <point x="230" y="475" type="curve" smooth="yes"/>
      <point x="230" y="725"/>
      <point x="350" y="850"/>
      <point x="520" y="850" type="curve" smooth="yes"/>
      <point x="615" y="850"/>
      <point x="701" y="806"/>
      <point x="745" y="730" type="curve"/>
      <point x="745" y="272" type="line"/>
    </contour>
    <contour>
      <point x="571" y="-100" type="move" name="L"/>
    </contour>
    <contour>
      <point x="571" y="1690" type="move" name="U"/>
    </contour>
  </outline>
</glyph>
<glyph name="Uhorn" format="1">
  <advance width="1400"/>
  <unicode hex="01AF"/>
  <outline>
    <contour>
      <point x="1400" y="1392" type="curve" name="hr00" smooth="yes"/>
      <point x="1400" y="1431"/>
      <point x="1379" y="1466"/>
      <point x="1348" y="1495" type="curve"/>
      <point x="1170" y="1415" type="line"/>
      <point x="1207" y="1384"/>
      <point x="1228" y="1349"/>
      <point x="1228" y="1311" type="curve" smooth="yes"/>
      <point x="1228" y="1296"/>
      <point x="1222" y="1279"/>
      <point x="1210" y="1260" type="curve"/>
      <point x="855" y="1260" type="line"/>
      <point x="855" y="1217" type="line"/>
      <point x="951" y="1198"/>
      <point x="1000" y="1171"/>
      <point x="1000" y="1155" type="curve" smooth="yes"/>
      <point x="1000" y="483" type="line" smooth="yes"/>
      <point x="1000" y="285"/>
      <point x="895" y="85"/>
      <point x="705" y="85" type="curve" smooth="yes"/>
      <point x="477" y="85"/>
      <point x="355" y="238"/>
      <point x="355" y="494" type="curve" smooth="yes"/>
      <point x="355" y="1155" type="line" smooth="yes"/>
      <point x="355" y="1174"/>
      <point x="410" y="1198"/>
      <point x="500" y="1217" type="curve"/>
      <point x="500" y="1260" type="line"/>
      <point x="50" y="1260" type="line"/>
      <point x="50" y="1217" type="line"/>
      <point x="146" y="1198"/>
      <point x="195" y="1171"/>
      <point x="195" y="1155" type="curve" smooth="yes"/>
      <point x="195" y="444" type="line" smooth="yes"/>
      <point x="195" y="119"/>
      <point x="391" y="-30"/>
      <point x="666" y="-30" type="curve" smooth="yes"/>
      <point x="954" y="-30"/>
      <point x="1130" y="174"/>
      <point x="1130" y="524" type="curve" smooth="yes"/>
      <point x="1130" y="1105" type="line"/>
      <point x="1341" y="1207"/>
      <point x="1400" y="1325"/>
    </contour>
    <contour>
      <point x="677" y="-100" type="move" name="L"/>
    </contour>
    <contour>
      <point x="677" y="1370" type="move" name="U"/>
    </contour>
  </outline>
</glyph>
<glyph name="Qhooktail" format="1">
  <advance width="1229"/>
  <unicode hex="024A"/>
  <outline>
    <contour>
      <point x="894" y="-168" type="line"/>
      <point x="894" y="-374"/>
      <point x="925" y="-500"/>
      <point x="1097" y="-500" type="curve" smooth="yes"/>
      <point x="1265" y="-500"/>
      <point x="1452" y="-364"/>
      <point x="1452" y="-235" type="curve"/>
      <point x="1433" y="-196" type="line"/>
      <point x="1378" y="-196"/>
      <point x="1267" y="-243"/>
      <point x="1267" y="-264" type="curve"/>
      <point x="1274" y="-278"/>
      <point x="1278" y="-292"/>
      <point x="1278" y="-306" type="curve" smooth="yes"/>
      <point x="1278" y="-358"/>
      <point x="1229" y="-405"/>
      <point x="1171" y="-405" type="curve" smooth="yes"/>
      <point x="1063" y="-405"/>
      <point x="1054" y="-312"/>
      <point x="1054" y="-106" type="curve" smooth="yes"/>
      <point x="1054" y="964" type="line" smooth="yes"/>
      <point x="1054" y="1126"/>
      <point x="1091" y="1250"/>
      <point x="1091" y="1250" type="curve"/>
      <point x="1049" y="1288" type="line"/>
      <point x="1018" y="1253"/>
      <point x="973" y="1203"/>
      <point x="930" y="1174" type="curve"/>
      <point x="828" y="1273"/>
      <point x="755" y="1290"/>
      <point x="671" y="1290" type="curve" smooth="yes"/>
      <point x="610" y="1290"/>
      <point x="504" y="1259"/>
      <point x="413" y="1203" type="curve" smooth="yes"/>
      <point x="299" y="1133"/>
      <point x="66" y="911"/>
      <point x="66" y="597" type="curve" smooth="yes"/>
      <point x="66" y="198"/>
      <point x="312" y="-30"/>
      <point x="489" y="-30" type="curve" smooth="yes"/>
      <point x="653" y="-30"/>
      <point x="769" y="64"/>
      <point x="894" y="225" type="curve"/>
    </contour>
    <contour>
      <point x="544" y="105" type="curve" smooth="yes"/>
      <point x="383" y="105"/>
      <point x="216" y="333"/>
      <point x="216" y="638" type="curve" smooth="yes"/>
      <point x="216" y="974"/>
      <point x="455" y="1155"/>
      <point x="634" y="1155" type="curve" smooth="yes"/>
      <point x="748" y="1155"/>
      <point x="842" y="1094"/>
      <point x="894" y="991" type="curve"/>
      <point x="894" y="332" type="line"/>
      <point x="787" y="222"/>
      <point x="651" y="105"/>
    </contour>
    <contour>
      <point x="604" y="-600" type="move" name="L"/>
    </contour>
    <contour>
      <point x="604" y="1370" type="move" name="U"/>
    </contour>
  </outline>
</glyph>
<glyph name="dhook" format="1">
  <advance width="1065"/>
  <unicode hex="0257"/>
  <outline>
    <contour>
      <point x="1292" y="1423" type="curve" name="hr00" smooth="yes"/>
      <point x="1292" y="1448"/>
      <point x="1210" y="1550"/>
      <point x="1094" y="1550" type="curve" smooth="yes"/>
      <point x="1042" y="1550"/>
      <point x="961" y="1518"/>
      <point x="893" y="1458" type="curve"/>
      <point x="788" y="1368"/>
      <point x="745" y="1278"/>
      <point x="745" y="1051" type="curve" smooth="yes"/>
      <point x="745" y="897" type="line"/>
      <point x="673" y="950"/>
      <point x="613" y="960"/>
      <point x="551" y="960" type="curve" smooth="yes"/>
      <point x="272" y="960"/>
      <point x="80" y="674"/>
      <point x="80" y="444" type="curve" smooth="yes"/>
      <point x="80" y="147"/>
      <point x="268" y="-30"/>
      <point x="416" y="-30" type="curve" smooth="yes"/>
      <point x="553" y="-30"/>
      <point x="645" y="46"/>
      <point x="747" y="169" type="curve"/>
      <point x="756" y="24"/>
      <point x="785" y="-31"/>
      <point x="829" y="-31" type="curve" smooth="yes"/>
      <point x="866" y="-31"/>
      <point x="928" y="2"/>
      <point x="1051" y="84" type="curve"/>
      <point x="1038" y="127" type="line"/>
      <point x="958" y="96"/>
      <point x="930" y="92"/>
      <point x="918" y="106" type="curve" smooth="yes"/>
      <point x="903" y="125"/>
      <point x="895" y="160"/>
      <point x="895" y="254" type="curve" smooth="yes"/>
      <point x="895" y="1106" type="line" smooth="yes"/>
      <point x="895" y="1348"/>
      <point x="932" y="1425"/>
      <point x="1016" y="1425" type="curve" smooth="yes"/>
      <point x="1053" y="1425"/>
      <point x="1110" y="1407"/>
      <point x="1165" y="1315" type="curve"/>
      <point x="1204" y="1333"/>
      <point x="1292" y="1401"/>
    </contour>
    <contour>
      <point x="745" y="261" type="line"/>
      <point x="662" y="180"/>
      <point x="578" y="100"/>
      <point x="487" y="100" type="curve" smooth="yes"/>
      <point x="377" y="100"/>
      <point x="230" y="248"/>
      <point x="230" y="475" type="curve" smooth="yes"/>
      <point x="230" y="725"/>
      <point x="350" y="850"/>
      <point x="520" y="850" type="curve" smooth="yes"/>
      <point x="615" y="850"/>
      <point x="701" y="806"/>
      <point x="745" y="730" type="curve"/>
      <point x="745" y="272" type="line"/>
    </contour>
    <contour>
      <point x="525" y="-100" type="move" name="L"/>
    </contour>
    <contour>
      <point x="335" y="1050" type="move" name="U"/>
    </contour>
  </outline>
</glyph>
<glyph name="gamma-latin" format="1">
  <advance width="1010"/>
  <unicode hex="0263"/>
  <outline>
    <contour>
      <point x="989" y="887" type="curve" name="hr00"/>
      <point x="989" y="930" type="line"/>
      <point x="655" y="930" type="line"/>
      <point x="655" y="887" type="line"/>
      <point x="754" y="872"/>
      <point x="778" y="858"/>
      <point x="760" y="819" type="curve"/>
      <point x="525" y="340" type="line"/>
      <point x="301" y="819" type="line"/>
      <point x="283" y="860"/>
      <point x="303" y="874"/>
      <point x="406" y="887" type="curve"/>
      <point x="406" y="930" type="line"/>
      <point x="20" y="930" type="line"/>
      <point x="20" y="887" type="line"/>
      <point x="86" y="872"/>
      <point x="117" y="854"/>
      <point x="131" y="819" type="curve"/>
      <point x="438" y="160" type="line"/>
      <point x="364" y="9" type="line" smooth="yes"/>
      <point x="287" y="-149"/>
      <point x="268" y="-217"/>
      <point x="268" y="-284" type="curve" smooth="yes"/>
      <point x="268" y="-414"/>
      <point x="365" y="-500"/>
      <point x="483" y="-500" type="curve" smooth="yes"/>
      <point x="662" y="-500"/>
      <point x="740" y="-333"/>
      <point x="740" y="-235" type="curve" smooth="yes"/>
      <point x="740" y="-126"/>
      <point x="711" y="-54"/>
      <point x="635" y="107" type="curve" smooth="yes"/>
      <point x="581" y="220" type="line"/>
      <point x="879" y="819" type="line" smooth="yes"/>
      <point x="897" y="856"/>
      <point x="909" y="868"/>
    </contour>
    <contour>
      <point x="517" y="-9" type="line"/>
      <point x="587" y="-166"/>
      <point x="602" y="-207"/>
      <point x="602" y="-282" type="curve" smooth="yes"/>
      <point x="602" y="-343"/>
      <point x="547" y="-395"/>
      <point x="496" y="-395" type="curve" smooth="yes"/>
      <point x="444" y="-395"/>
      <point x="379" y="-363"/>
      <point x="379" y="-251" type="curve" smooth="yes"/>
      <point x="379" y="-207"/>
      <point x="403" y="-140"/>
      <point x="493" y="42" type="curve"/>
    </contour>
    <contour>
      <point x="504" y="-600" type="move" name="L"/>
    </contour>
    <contour>
      <point x="504" y="1050" type="move" name="U"/>
    </contour>
  </outline>
</glyph>
<glyph name="lmiddletilde" format="1">
  <advance width="682"/>
  <unicode hex="026B"/>
  <outline>
    <contour>
      <point x="682" y="891" type="curve" name="hr00"/>
      <point x="628" y="914" type="line"/>
      <point x="583" y="836"/>
      <point x="534" y="791"/>
      <point x="483" y="791" type="curve" smooth="yes"/>
      <point x="462" y="791"/>
      <point x="440" y="802"/>
      <point x="416" y="818" type="curve"/>
      <point x="416" y="1516" type="line"/>
      <point x="380" y="1550" type="line"/>
      <point x="298" y="1507"/>
      <point x="222" y="1489"/>
      <point x="126" y="1470" type="curve"/>
      <point x="126" y="1430" type="line"/>
      <point x="238" y="1417"/>
      <point x="266" y="1417"/>
      <point x="266" y="1296" type="curve" smooth="yes"/>
      <point x="266" y="901" type="line"/>
      <point x="257" y="903"/>
      <point x="248" y="904"/>
      <point x="239" y="904" type="curve" smooth="yes"/>
      <point x="135" y="904"/>
      <point x="47" y="787"/>
      <point x="0" y="678" type="curve"/>
      <point x="53" y="658" type="line"/>
      <point x="102" y="732"/>
      <point x="143" y="779"/>
      <point x="196" y="779" type="curve" smooth="yes"/>
      <point x="219" y="779"/>
      <point x="242" y="768"/>
      <point x="266" y="754" type="curve"/>
      <point x="266" y="104" type="line" smooth="yes"/>
      <point x="266" y="82"/>
      <point x="231" y="63"/>
      <point x="116" y="43" type="curve"/>
      <point x="116" y="0" type="line"/>
      <point x="566" y="0" type="line"/>
      <point x="566" y="43" type="line"/>
      <point x="457" y="61"/>
      <point x="416" y="84"/>
      <point x="416" y="104" type="curve" smooth="yes"/>
      <point x="416" y="669" type="line"/>
      <point x="424" y="667"/>
      <point x="433" y="666"/>
      <point x="442" y="666" type="curve" smooth="yes"/>
      <point x="546" y="666"/>
      <point x="635" y="783"/>
    </contour>
    <contour>
      <point x="341" y="-100" type="move" name="L"/>
    </contour>
    <contour>
      <point x="341" y="1690" type="move" name="U"/>
    </contour>
  </outline>
</glyph>
<glyph name="horncomb" format="1">
  <advance width="70"/>
  <unicode hex="031B"/>
  <outline>
    <contour>
      <point x="70" y="1042" type="curve" name="hr00"/>
      <point x="70" y="1081"/>
      <point x="49" y="1116"/>
      <point x="18" y="1145" type="curve"/>
      <point x="-160" y="1065" type="line"/>
      <point x="-123" y="1034"/>
      <point x="-102" y="999"/>
      <point x="-102" y="961" type="curve" smooth="yes"/>
      <point x="-102" y="913"/>
      <point x="-166" y="831"/>
      <point x="-324" y="772" type="curve"/>
      <point x="-306" y="710" type="line"/>
      <point x="-8" y="821"/>
      <point x="70" y="965"/>
    </contour>
    <contour>
      <point x="0" y="900" type="move" name="_R"/>
    </contour>
  </outline>
</glyph>
<glyph name="cedillacomb" format="1">
  <advance width="0"/>
  <unicode hex="0327"/>
  <outline>
    <contour>
      <point x="-348" y="-229" type="curve" name="hr00"/>
      <point x="-348" y="-154"/>
      <point x="-418" y="-119"/>
      <point x="-488" y="-104" type="curve"/>
      <point x="-449" y="12" type="line"/>
      <point x="-527" y="14" type="line"/>
      <point x="-598" y="-209"/>
      <point x="-600" y="-209"/>
      <point x="-600" y="-209" type="curve"/>
      <point x="-518" y="-217"/>
      <point x="-486" y="-231"/>
      <point x="-486" y="-276" type="curve" smooth="yes"/>
      <point x="-486" y="-319"/>
      <point x="-539" y="-371"/>
      <point x="-678" y="-395" type="curve"/>
      <point x="-656" y="-444" type="line"/>
      <point x="-437" y="-412"/>
      <point x="-348" y="-328"/>
    </contour>
    <contour>
      <point x="-513" y="-600" type="move" name="L"/>
    </contour>
    <contour>
      <point x="-513" y="0" type="move" name="_H"/>
    </contour>
  </outline>
</glyph>
<glyph name="doublemacroncomb" format="1">
  <advance width="0"/>
  <unicode hex="035E"/>
  <outline>
    <contour>
      <point x="653" y="1751" type="curve"/>
      <point x="631" y="1775" type="line"/>
      <point x="-612" y="1775" type="line"/>
      <point x="-625" y="1749"/>
      <point x="-647" y="1699"/>
      <point x="-653" y="1670" type="curve"/>
      <point x="-631" y="1645" type="line"/>
      <point x="614" y="1645" type="line"/>
      <point x="624" y="1670"/>
      <point x="647" y="1722"/>
    </contour>
    <contour>
      <point x="0" y="1800" type="move" name="U"/>
    </contour>
  </outline>
</glyph>
<glyph name="doublemacronbelowcomb" format="1">
  <advance width="0"/>
  <unicode hex="035F"/>
  <outline>
    <contour>
      <point x="653" y="-619" type="curve"/>
      <point x="631" y="-595" type="line"/>
      <point x="-612" y="-595" type="line"/>
      <point x="-625" y="-621"/>
      <point x="-647" y="-671"/>
      <point x="-653" y="-700" type="curve"/>
      <point x="-631" y="-725" type="line"/>
      <point x="614" y="-725" type="line"/>
      <point x="624" y="-700"/>
      <point x="647" y="-648"/>
    </contour>
    <contour>
      <point x="0" y="-700" type="move" name="L"/>
    </contour>
  </outline>
</glyph>
<glyph name="dagger" format="1">
  <advance width="977"/>
  <unicode hex="2020"/>
  <outline>
    <contour>
      <point x="882" y="1117" type="line" name="hr00"/>
      <point x="761" y="1087"/>
      <point x="659" y="1073"/>
      <point x="535" y="1068" type="curve"/>
      <point x="540" y="1194"/>
      <point x="555" y="1331"/>
      <point x="586" y="1455" type="curve"/>
      <point x="543" y="1480" type="line"/>
      <point x="498" y="1461"/>
      <point x="437" y="1431"/>
      <point x="386" y="1398" type="curve"/>
      <point x="420" y="1300"/>
      <point x="434" y="1187"/>
      <point x="437" y="1067" type="curve"/>
      <point x="328" y="1072"/>
      <point x="241" y="1085"/>
      <point x="152" y="1117" type="curve"/>
      <point x="119" y="1066"/>
      <point x="89" y="1005"/>
      <point x="70" y="960" type="curve"/>
      <point x="95" y="917" type="line"/>
      <point x="214" y="947"/>
      <point x="315" y="961"/>
      <point x="437" y="967" type="curve"/>
      <point x="435" y="875"/>
      <point x="426" y="772"/>
      <point x="401" y="680" type="curve"/>
      <point x="427" y="534"/>
      <point x="436" y="381"/>
      <point x="438" y="250" type="curve" smooth="yes"/>
      <point x="439" y="169"/>
      <point x="432" y="70"/>
      <point x="424" y="-19" type="curve"/>
      <point x="453" y="-40" type="line"/>
      <point x="486" y="-30"/>
      <point x="522" y="-19"/>
      <point x="547" y="-1" type="curve"/>
      <point x="540" y="80"/>
      <point x="533" y="173"/>
      <point x="534" y="250" type="curve" smooth="yes"/>
      <point x="536" y="377"/>
      <point x="545" y="533"/>
      <point x="571" y="680" type="curve"/>
      <point x="546" y="771"/>
      <point x="535" y="874"/>
      <point x="534" y="967" type="curve"/>
      <point x="646" y="961"/>
      <point x="734" y="949"/>
      <point x="825" y="917" type="curve"/>
      <point x="858" y="968"/>
      <point x="888" y="1029"/>
      <point x="907" y="1074" type="curve"/>
    </contour>
  </outline>
</glyph>
<glyph name="fraction" format="1">
  <advance width="1200"/>
  <unicode hex="2044"/>
  <outline>
    <contour>
      <point x="1074" y="1207" type="line" name="hr00"/>
      <point x="1049" y="1235" type="line"/>
      <point x="1020" y="1229"/>
      <point x="986" y="1214"/>
      <point x="960" y="1203" type="curve"/>
      <point x="198" y="0" type="line"/>
      <point x="223" y="-30" type="line"/>
      <point x="259" y="-21"/>
      <point x="285" y="-12"/>
      <point x="316" y="3" type="curve"/>
    </contour>
  </outline>
</glyph>
<glyph name="emptyset" format="1">
  <advance width="1350"/>
  <unicode hex="2205"/>
  <outline>
    <contour>
      <point x="80" y="630" type="curve" smooth="yes"/>
      <point x="80" y="448"/>
      <point x="147" y="283"/>
      <point x="255" y="163" type="curve"/>
      <point x="80" y="-70" type="line"/>
      <point x="108" y="-103" type="line"/>
      <point x="141" y="-93"/>
      <point x="213" y="-73"/>
      <point x="237" y="-52" type="curve"/>
      <point x="340" y="85" type="line"/>
      <point x="435" y="13"/>
      <point x="551" y="-30"/>
      <point x="675" y="-30" type="curve" smooth="yes"/>
      <point x="1002" y="-30"/>
      <point x="1270" y="266"/>
      <point x="1270" y="630" type="curve" smooth="yes"/>
      <point x="1270" y="811"/>
      <point x="1203" y="976"/>
      <point x="1095" y="1096" type="curve"/>
      <point x="1270" y="1330" type="line"/>
      <point x="1242" y="1363" type="line"/>
      <point x="1201" y="1353"/>
      <point x="1152" y="1336"/>
      <point x="1115" y="1314" type="curve"/>
      <point x="1010" y="1174" type="line"/>
      <point x="915" y="1247"/>
      <point x="799" y="1290"/>
      <point x="675" y="1290" type="curve" smooth="yes"/>
      <point x="348" y="1290"/>
      <point x="80" y="994"/>
    </contour>
    <contour>
      <point x="210" y="629" type="curve" smooth="yes"/>
      <point x="210" y="931"/>
      <point x="418" y="1180"/>
      <point x="675" y="1180" type="curve" smooth="yes"/>
      <point x="774" y="1180"/>
      <point x="865" y="1143"/>
      <point x="940" y="1080" type="curve"/>
      <point x="329" y="262" type="line"/>
      <point x="255" y="360"/>
      <point x="210" y="488"/>
    </contour>
    <contour>
      <point x="1140" y="629" type="curve" smooth="yes"/>
      <point x="1140" y="327"/>
      <point x="932" y="79"/>
      <point x="675" y="79" type="curve" smooth="yes"/>
      <point x="576" y="79"/>
      <point x="485" y="115"/>
      <point x="409" y="178" type="curve"/>
      <point x="1021" y="996" type="line"/>
      <point x="1095" y="898"/>
      <point x="1140" y="769"/>
    </contour>
  </outline>
</glyph>
<glyph name="lozenge" format="1">
  <advance width="680"/>
  <unicode hex="25CA"/>
  <outline>
    <contour>
      <point x="301" y="16" type="line"/>
      <point x="330" y="29"/>
      <point x="378" y="60"/>
      <point x="405" y="84" type="curve"/>
      <point x="679" y="660" type="line"/>
      <point x="378" y="1272" type="line"/>
      <point x="350" y="1259"/>
      <point x="301" y="1228"/>
      <point x="275" y="1204" type="curve"/>
      <point x="1" y="627" type="line"/>
    </contour>
    <contour>
      <point x="320" y="1078" type="line"/>
      <point x="551" y="627" type="line"/>
      <point x="552" y="626" type="line"/>
      <point x="360" y="209" type="line"/>
      <point x="128" y="660" type="line"/>
      <point x="127" y="660" type="line"/>
    </contour>
  </outline>
</glyph>
<glyph name="colonmod" format="1">
  <advance width="428"/>
  <unicode hex="A789"/>
  <outline>
    <contour>
      <point x="338" y="243" type="curve" smooth="yes"/>
      <point x="338" y="315"/>
      <point x="305" y="356"/>
      <point x="239" y="356" type="curve" smooth="yes"/>
      <point x="164" y="356"/>
      <point x="100" y="282"/>
      <point x="100" y="192" type="curve" smooth="yes"/>
      <point x="100" y="120"/>
      <point x="129" y="80"/>
      <point x="200" y="80" type="curve" smooth="yes"/>
      <point x="278" y="80"/>
      <point x="338" y="151"/>
    </contour>
    <contour>
      <point x="338" y="728" type="curve" smooth="yes"/>
      <point x="338" y="800"/>
      <point x="305" y="841"/>
      <point x="239" y="841" type="curve" smooth="yes"/>
      <point x="164" y="841"/>
      <point x="100" y="767"/>
      <point x="100" y="677" type="curve" smooth="yes"/>
      <point x="100" y="605"/>
      <point x="129" y="565"/>
      <point x="200" y="565" type="curve" smooth="yes"/>
      <point x="278" y="565"/>
      <point x="338" y="636"/>
    </contour>
  </outline>
</glyph>
<glyph name="LtnSmJ.Dotless" format="1">
  <advance width="530"/>
  <outline>
    <contour>
      <point x="355" y="99" type="curve" name="hr00"/>
      <point x="355" y="960" type="line"/>
      <point x="318" y="960" type="line"/>
      <point x="234" y="925"/>
      <point x="176" y="900"/>
      <point x="65" y="880" type="curve"/>
      <point x="65" y="840" type="line"/>
      <point x="204" y="825"/>
      <point x="205" y="807"/>
      <point x="205" y="670" type="curve" smooth="yes"/>
      <point x="205" y="43" type="line" smooth="yes"/>
      <point x="205" y="-280"/>
      <point x="122" y="-365"/>
      <point x="45" y="-365" type="curve" smooth="yes"/>
      <point x="-5" y="-365"/>
      <point x="-50" y="-357"/>
      <point x="-93" y="-320" type="curve"/>
      <point x="-132" y="-338"/>
      <point x="-220" y="-408"/>
      <point x="-220" y="-431" type="curve" smooth="yes"/>
      <point x="-220" y="-453"/>
      <point x="-136" y="-500"/>
      <point x="-54" y="-500" type="curve" smooth="yes"/>
      <point x="-3" y="-500"/>
      <point x="94" y="-457"/>
      <point x="165" y="-400" type="curve" smooth="yes"/>
      <point x="272" y="-314"/>
      <point x="355" y="-208"/>
    </contour>
    <contour>
      <point x="280" y="-600" type="move" name="L"/>
    </contour>
    <contour>
      <point x="281" y="1050" type="move" name="U"/>
    </contour>
  </outline>
</glyph>
<glyph name="LtnSmOpnO.TopSerif" format="1">
  <advance width="895"/>
  <outline>
    <contour>
      <point x="55" y="190" type="line" name="hr00"/>
      <point x="229" y="-14"/>
      <point x="305" y="-30"/>
      <point x="430" y="-30" type="curve" smooth="yes"/>
      <point x="625" y="-30"/>
      <point x="815" y="147"/>
      <point x="815" y="444" type="curve" smooth="yes"/>
      <point x="815" y="731"/>
      <point x="592" y="960"/>
      <point x="305" y="960" type="curve" smooth="yes"/>
      <point x="217" y="960"/>
      <point x="115" y="928"/>
      <point x="70" y="881" type="curve"/>
      <point x="64" y="848"/>
      <point x="102" y="754"/>
      <point x="127" y="717" type="curve"/>
      <point x="164" y="727" type="line"/>
      <point x="186" y="774"/>
      <point x="258" y="850"/>
      <point x="395" y="850" type="curve" smooth="yes"/>
      <point x="535" y="850"/>
      <point x="665" y="725"/>
      <point x="665" y="475" type="curve" smooth="yes"/>
      <point x="665" y="248"/>
      <point x="518" y="102"/>
      <point x="358" y="102" type="curve" smooth="yes"/>
      <point x="283" y="102"/>
      <point x="242" y="104"/>
      <point x="94" y="231" type="curve"/>
    </contour>
    <contour>
      <point x="430" y="0" type="move" name="H"/>
    </contour>
    <contour>
      <point x="690" y="0" type="move" name="O"/>
    </contour>
    <contour>
      <point x="895" y="900" type="move" name="R"/>
    </contour>
    <contour>
      <point x="430" y="1050" type="move" name="U"/>
    </contour>
    <contour>
      <point x="430" y="-100" type="move" name="L"/>
    </contour>
  </outline>
</glyph>
